<?xml version="1.0" encoding="iso-8859-1"?>
<!-- Uploaded to: SVG Repo, www.svgrepo.com, Generator: SVG Repo Mixer Tools -->
<svg fill="currentColor" version="1.2" id="Capa_1" xmlns="http://www.w3.org/2000/svg" xmlns:xlink="http://www.w3.org/1999/xlink" 
	 viewBox="0 0 493.301 493.301" xml:space="preserve">
<path id="XMLID_472_" d="M355.244,149.88c4.971,0,9,4.029,9,9v89.284c0,4.971-4.029,9-9,9s-9-4.029-9-9V158.88
	C346.244,153.91,350.273,149.88,355.244,149.88z M410.178,37.868c-4.971,0-9,4.029-9,9v188.351c0,4.971,4.029,9,9,9s9-4.029,9-9
	V46.868C419.178,41.898,415.149,37.868,410.178,37.868z M236.377,102.72v49.043c0,4.971,4.029,9,9,9s9-4.029,9-9V102.72
	c0-4.971-4.029-9-9-9S236.377,97.749,236.377,102.72z M83.419,133.887l43.087-14.362v74.324c0,4.971,4.029,9,9,9s9-4.029,9-9
	v-80.324l100.18-33.394l123.349,61.675c4.444,2.224,9.852,0.421,12.075-4.024c2.223-4.446,0.421-9.853-4.025-12.075l-107.25-53.625
	l144.191-48.063c4.715-1.571,7.264-6.669,5.692-11.384c-1.572-4.716-6.668-7.263-11.384-5.692L246.068,60.698L126.578,0.952
	c-4.444-2.224-9.852-0.421-12.075,4.024c-2.223,4.446-0.421,9.853,4.025,12.075l103.39,51.695l-77.412,25.804V46.868
	c0-4.971-4.029-9-9-9s-9,4.029-9,9v53.683l-48.78,16.26c-4.715,1.571-7.264,6.669-5.692,11.384
	C73.606,132.91,78.7,135.458,83.419,133.887z M425.201,281.514l-41.869,20.935c0.183,1.3,0.278,2.629,0.278,3.979
	c0,15.64-12.724,28.363-28.363,28.363c-12.576,0-23.266-8.228-26.973-19.581l-53.533-0.437v70.569l60.685,31.099
	c5.117-5.005,12.115-8.094,19.821-8.094c15.64,0,28.363,12.725,28.363,28.364s-12.724,28.363-28.363,28.363
	c-4.097,0-7.993-0.873-11.514-2.442l-25.38,27.744c-1.775,1.94-4.205,2.925-6.643,2.925c-2.169,0-4.345-0.779-6.072-2.359
	c-3.667-3.355-3.921-9.048-0.566-12.716l25.383-27.746c-2.275-4.08-3.571-8.775-3.571-13.769c0-1.447,0.109-2.869,0.319-4.259
	l-56.396-28.901c-5.083,8.776-14.578,14.691-25.429,14.691c-10.85,0-20.344-5.916-25.428-14.69l-56.397,28.9
	c0.21,1.39,0.319,2.812,0.319,4.259c0,4.993-1.296,9.688-3.571,13.769l25.382,27.746c3.355,3.668,3.102,9.36-0.566,12.716
	c-3.667,3.354-9.36,3.103-12.715-0.566l-25.38-27.743c-3.521,1.569-7.417,2.442-11.514,2.442c-15.639,0-28.363-12.724-28.363-28.363
	s12.724-28.364,28.363-28.364c7.707,0,14.704,3.089,19.821,8.094l60.686-31.098V301.08l-60.486-30.243
	c-5.134,5.121-12.214,8.291-20.021,8.291c-7.806,0-14.885-3.17-20.019-8.29L76.15,290.506c-4.446,2.225-9.852,0.421-12.075-4.025
	c-2.223-4.445-0.421-9.852,4.025-12.074l39.322-19.66c-0.184-1.302-0.278-2.631-0.278-3.982c0-15.64,12.724-28.363,28.363-28.363
	c15.64,0,28.364,12.724,28.364,28.363c0,1.351-0.095,2.681-0.278,3.981l56.542,28.271c3.626-6.084,9.387-10.753,16.242-12.965
	v-11.631c-15.771-4.018-27.469-18.34-27.469-35.343v-6.107c0-20.107,16.36-36.467,36.469-36.467
	c20.109,0,36.469,16.359,36.469,36.467v6.107c0,17.004-11.698,31.327-27.469,35.344v11.63c11.43,3.688,19.819,14.205,20.338,26.721
	l53.705,0.437c3.835-11.128,14.413-19.146,26.827-19.146c7.807,0,14.888,3.171,20.022,8.293l41.883-20.941
	c4.445-2.221,9.852-0.421,12.075,4.024C431.449,273.885,429.647,279.291,425.201,281.514z M145.87,250.764
	c0-5.714-4.649-10.363-10.364-10.363c-5.714,0-10.363,4.649-10.363,10.363c0,5.715,4.649,10.364,10.363,10.364
	C141.221,261.128,145.87,256.479,145.87,250.764z M145.87,436.711c0-5.715-4.649-10.364-10.364-10.364
	c-5.714,0-10.363,4.649-10.363,10.364c0,5.714,4.649,10.363,10.363,10.363C141.221,447.075,145.87,442.425,145.87,436.711z
	 M245.377,241.545c10.184,0,18.469-8.284,18.469-18.467v-6.107c0-10.183-8.285-18.467-18.468-18.467h-0.001
	c-10.184,0-18.469,8.284-18.469,18.467v6.107C226.908,233.261,235.193,241.545,245.377,241.545z M256.74,298.005
	c0-6.266-5.098-11.363-11.364-11.363c-5.148,0-9.509,3.442-10.899,8.146c-0.46,3.53-0.462,6.153-0.46,9.801
	c0.013,20.086,0.056,85.434,0.063,85.526c0.618,5.686,5.448,10.127,11.296,10.127c6.266,0,11.364-5.098,11.364-11.363v-83.141
	c0-0.024,0-0.049,0-0.074V298.005z M344.882,436.711c0,5.714,4.649,10.363,10.364,10.363s10.363-4.649,10.363-10.363
	c0-5.715-4.649-10.364-10.363-10.364S344.882,430.996,344.882,436.711z M365.61,306.427c0-5.715-4.649-10.364-10.363-10.364
	c-5.648,0-10.256,4.542-10.362,10.165c0,0.039,0,0.078,0,0.116c0,0.038,0,0.075-0.001,0.113c0.017,5.7,4.659,10.333,10.364,10.333
	C360.961,316.79,365.61,312.142,365.61,306.427z M144.183,385.802v-85.087c0-4.971-4.029-9-9-9s-9,4.029-9,9v85.087
	c0,4.971,4.029,9,9,9S144.183,390.773,144.183,385.802z M71.573,151.589v83.63c0,4.971,4.029,9,9,9s9-4.029,9-9v-83.63
	c0-4.971-4.029-9-9-9S71.573,146.618,71.573,151.589z M346.246,353.218v37.108c0,4.971,4.029,9,9,9s9-4.029,9-9v-37.108
	c0-4.971-4.029-9-9-9S346.246,348.247,346.246,353.218z"/>
</svg>